<svg xmlns="http://www.w3.org/2000/svg" xmlns:xlink="http://www.w3.org/1999/xlink" contentStyleType="text/css" data-diagram-type="DESCRIPTION" height="1226px" preserveAspectRatio="none" style="width:840px;height:1226px;background:#FFFFFF;" version="1.1" viewBox="0 0 840 1226" width="840px" zoomAndPan="magnify"><defs/><g><!--cluster Firmware--><g class="cluster" data-entity="Firmware" data-source-line="4" data-uid="ent0002" id="cluster_Firmware"><polygon fill="none" points="465.64,69.22,475.64,59.22,823.64,59.22,823.64,931.85,813.64,941.85,465.64,941.85,465.64,69.22" style="stroke:#181818;stroke-width:1;"/><line style="stroke:#181818;stroke-width:1;" x1="813.64" x2="823.64" y1="69.22" y2="59.22"/><line style="stroke:#181818;stroke-width:1;" x1="465.64" x2="813.64" y1="69.22" y2="69.22"/><line style="stroke:#181818;stroke-width:1;" x1="813.64" x2="813.64" y1="69.22" y2="941.85"/><text fill="#000000" font-family="sans-serif" font-size="14" font-weight="bold" lengthAdjust="spacing" textLength="74.6348" x="603.3226" y="85.2151">Firmware</text></g><!--cluster KernelSpace--><g class="cluster" data-entity="KernelSpace" data-source-line="5" data-uid="ent0003" id="cluster_KernelSpace"><path d="M513.14,621.41 L612.9945,621.41 A3.75,3.75 0 0 1 615.4945,623.91 L622.4945,643.7069 L777.14,643.7069 A2.5,2.5 0 0 1 779.64,646.2069 L779.64,915.35 A2.5,2.5 0 0 1 777.14,917.85 L513.14,917.85 A2.5,2.5 0 0 1 510.64,915.35 L510.64,623.91 A2.5,2.5 0 0 1 513.14,621.41" fill="none" style="stroke:#000000;stroke-width:1.5;"/><line style="stroke:#000000;stroke-width:1.5;" x1="510.64" x2="622.4945" y1="643.7069" y2="643.7069"/><text fill="#000000" font-family="sans-serif" font-size="14" font-weight="bold" lengthAdjust="spacing" textLength="98.8545" x="514.64" y="636.4051">KernelSpace</text></g><!--cluster KSFirmware_Linux--><g class="cluster" data-entity="KSFirmware_Linux" data-source-line="6" data-uid="ent0004" id="cluster_KSFirmware_Linux"><polygon fill="none" points="534.64,674.41,544.64,664.41,755.64,664.41,755.64,883.85,745.64,893.85,534.64,893.85,534.64,674.41" style="stroke:#181818;stroke-width:1;"/><line style="stroke:#181818;stroke-width:1;" x1="745.64" x2="755.64" y1="674.41" y2="664.41"/><line style="stroke:#181818;stroke-width:1;" x1="534.64" x2="745.64" y1="674.41" y2="674.41"/><line style="stroke:#181818;stroke-width:1;" x1="745.64" x2="745.64" y1="674.41" y2="893.85"/><text fill="#000000" font-family="sans-serif" font-size="14" font-weight="bold" lengthAdjust="spacing" textLength="145.25" x="568.515" y="690.4051">KSFirmware_Linux</text></g><!--cluster UserSpace--><g class="cluster" data-entity="UserSpace" data-source-line="12" data-uid="ent0007" id="cluster_UserSpace"><path d="M492.14,107.22 L576.5863,107.22 A3.75,3.75 0 0 1 579.0863,109.72 L586.0863,129.5169 L797.14,129.5169 A2.5,2.5 0 0 1 799.64,132.0169 L799.64,569.91 A2.5,2.5 0 0 1 797.14,572.41 L492.14,572.41 A2.5,2.5 0 0 1 489.64,569.91 L489.64,109.72 A2.5,2.5 0 0 1 492.14,107.22" fill="none" style="stroke:#000000;stroke-width:1.5;"/><line style="stroke:#000000;stroke-width:1.5;" x1="489.64" x2="586.0863" y1="129.5169" y2="129.5169"/><text fill="#000000" font-family="sans-serif" font-size="14" font-weight="bold" lengthAdjust="spacing" textLength="83.4463" x="493.64" y="122.2151">UserSpace</text></g><!--cluster USFirmware--><g class="cluster" data-entity="USFirmware" data-source-line="13" data-uid="ent0008" id="cluster_USFirmware"><polygon fill="none" points="513.64,160.22,523.64,150.22,775.64,150.22,775.64,538.41,765.64,548.41,513.64,548.41,513.64,160.22" style="stroke:#181818;stroke-width:1;"/><line style="stroke:#181818;stroke-width:1;" x1="765.64" x2="775.64" y1="160.22" y2="150.22"/><line style="stroke:#181818;stroke-width:1;" x1="513.64" x2="765.64" y1="160.22" y2="160.22"/><line style="stroke:#181818;stroke-width:1;" x1="765.64" x2="765.64" y1="160.22" y2="548.41"/><text fill="#000000" font-family="sans-serif" font-size="14" font-weight="bold" lengthAdjust="spacing" textLength="96.0859" x="592.597" y="176.2151">USFirmware</text></g><!--cluster Cloud--><g class="cluster" data-entity="Cloud" data-source-line="24" data-uid="ent0014" id="cluster_Cloud"><polygon fill="none" points="27.64,160.22,37.64,150.22,360.64,150.22,360.64,1199.15,350.64,1209.15,27.64,1209.15,27.64,160.22" style="stroke:#181818;stroke-width:1;"/><line style="stroke:#181818;stroke-width:1;" x1="350.64" x2="360.64" y1="160.22" y2="150.22"/><line style="stroke:#181818;stroke-width:1;" x1="27.64" x2="350.64" y1="160.22" y2="160.22"/><line style="stroke:#181818;stroke-width:1;" x1="350.64" x2="350.64" y1="160.22" y2="1209.15"/><text fill="#000000" font-family="sans-serif" font-size="14" font-weight="bold" lengthAdjust="spacing" textLength="44.6797" x="167.8002" y="176.2151">Cloud</text></g><!--cluster VPC--><g class="cluster" data-entity="VPC" data-source-line="32" data-uid="ent0020" id="cluster_VPC"><path d="M54.14,434.81 L86.5101,434.81 A3.75,3.75 0 0 1 89.0101,437.31 L96.0101,457.1069 L334.14,457.1069 A2.5,2.5 0 0 1 336.64,459.6069 L336.64,1182.65 A2.5,2.5 0 0 1 334.14,1185.15 L54.14,1185.15 A2.5,2.5 0 0 1 51.64,1182.65 L51.64,437.31 A2.5,2.5 0 0 1 54.14,434.81" fill="none" style="stroke:#000000;stroke-width:1.5;"/><line style="stroke:#000000;stroke-width:1.5;" x1="51.64" x2="96.0101" y1="457.1069" y2="457.1069"/><text fill="#000000" font-family="sans-serif" font-size="14" font-weight="bold" lengthAdjust="spacing" textLength="31.3701" x="55.64" y="449.8051">VPC</text></g><!--entity KernelDMADriver--><g class="entity" data-entity="KernelDMADriver" data-source-line="7" data-uid="ent0005" id="entity_KernelDMADriver"><rect fill="#F1F1F1" height="46.2969" rx="2.5" ry="2.5" style="stroke:#181818;stroke-width:0.5;" width="160.4424" x="564.42" y="831.56"/><rect fill="#F1F1F1" height="10" style="stroke:#181818;stroke-width:0.5;" width="15" x="704.8624" y="836.56"/><rect fill="#F1F1F1" height="2" style="stroke:#181818;stroke-width:0.5;" width="4" x="702.8624" y="838.56"/><rect fill="#F1F1F1" height="2" style="stroke:#181818;stroke-width:0.5;" width="4" x="702.8624" y="842.56"/><text fill="#000000" font-family="sans-serif" font-size="14" lengthAdjust="spacing" textLength="120.4424" x="579.42" y="864.5551">KernelDMADriver</text></g><!--entity FPGAData--><g class="entity" data-entity="FPGAData" data-source-line="8" data-uid="ent0006" id="entity_FPGAData"><ellipse cx="644.64" cy="733.41" fill="#F1F1F1" rx="8" ry="8" style="stroke:#181818;stroke-width:0.5;"/><text fill="#000000" font-family="sans-serif" font-size="14" lengthAdjust="spacing" textLength="70.3486" x="609.4657" y="763.4051">FPGAData</text></g><!--entity UserSpaceDMADriverProxy--><g class="entity" data-entity="UserSpaceDMADriverProxy" data-source-line="14" data-uid="ent0009" id="entity_UserSpaceDMADriverProxy"><rect fill="#F1F1F1" height="62.5938" rx="2.5" ry="2.5" style="stroke:#181818;stroke-width:0.5;" width="229.4238" x="529.93" y="469.81"/><rect fill="#F1F1F1" height="10" style="stroke:#181818;stroke-width:0.5;" width="15" x="739.3538" y="474.81"/><rect fill="#F1F1F1" height="2" style="stroke:#181818;stroke-width:0.5;" width="4" x="737.3538" y="476.81"/><rect fill="#F1F1F1" height="2" style="stroke:#181818;stroke-width:0.5;" width="4" x="737.3538" y="480.81"/><text fill="#000000" font-family="sans-serif" font-size="14" font-style="italic" lengthAdjust="spacing" textLength="92.7979" x="593.243" y="502.8051">&#171;subsystem&#187;</text><text fill="#000000" font-family="sans-serif" font-size="14" lengthAdjust="spacing" textLength="189.4238" x="544.93" y="519.102">UserSpaceDMADriverProxy</text></g><!--entity BackendGateway--><g class="entity" data-entity="BackendGateway" data-source-line="15" data-uid="ent0010" id="entity_BackendGateway"><rect fill="#F1F1F1" height="62.5938" rx="2.5" ry="2.5" style="stroke:#181818;stroke-width:0.5;" width="162.2061" x="529.54" y="190.22"/><rect fill="#F1F1F1" height="10" style="stroke:#181818;stroke-width:0.5;" width="15" x="671.7461" y="195.22"/><rect fill="#F1F1F1" height="2" style="stroke:#181818;stroke-width:0.5;" width="4" x="669.7461" y="197.22"/><rect fill="#F1F1F1" height="2" style="stroke:#181818;stroke-width:0.5;" width="4" x="669.7461" y="201.22"/><text fill="#000000" font-family="sans-serif" font-size="14" font-style="italic" lengthAdjust="spacing" textLength="92.7979" x="559.2441" y="223.2151">&#171;subsystem&#187;</text><text fill="#000000" font-family="sans-serif" font-size="14" lengthAdjust="spacing" textLength="122.2061" x="544.54" y="239.512">BackendGateway</text></g><!--entity IFPGAData--><g class="entity" data-entity="IFPGAData" data-source-line="16" data-uid="ent0011" id="entity_IFPGAData"><ellipse cx="631.64" cy="342.81" fill="#F1F1F1" rx="8" ry="8" style="stroke:#181818;stroke-width:0.5;"/><text fill="#000000" font-family="sans-serif" font-size="14" lengthAdjust="spacing" textLength="74.4775" x="594.4012" y="372.8051">IFPGAData</text></g><!--entity InternetGateway--><g class="entity" data-entity="InternetGateway" data-source-line="25" data-uid="ent0015" id="entity_InternetGateway"><rect fill="#F1F1F1" height="62.5938" rx="2.5" ry="2.5" style="stroke:#181818;stroke-width:0.5;" width="157.6807" x="185.8" y="190.22"/><rect fill="#F1F1F1" height="10" style="stroke:#181818;stroke-width:0.5;" width="15" x="323.4807" y="195.22"/><rect fill="#F1F1F1" height="2" style="stroke:#181818;stroke-width:0.5;" width="4" x="321.4807" y="197.22"/><rect fill="#F1F1F1" height="2" style="stroke:#181818;stroke-width:0.5;" width="4" x="321.4807" y="201.22"/><text fill="#000000" font-family="sans-serif" font-size="14" font-style="italic" lengthAdjust="spacing" textLength="67.7441" x="225.7683" y="223.2151">&#171;system&#187;</text><text fill="#000000" font-family="sans-serif" font-size="14" lengthAdjust="spacing" textLength="117.6807" x="200.8" y="239.512">InternetGateway</text></g><!--entity FWD--><g class="entity" data-entity="FWD" data-source-line="27" data-uid="ent0016" id="entity_FWD"><ellipse cx="239.64" cy="342.81" fill="#F1F1F1" rx="8" ry="8" style="stroke:#181818;stroke-width:0.5;"/><text fill="#000000" font-family="sans-serif" font-size="14" lengthAdjust="spacing" textLength="32.6758" x="223.3021" y="372.8051">FWD</text></g><!--entity Backend--><g class="entity" data-entity="Backend" data-source-line="43" data-uid="ent0024" id="entity_Backend"><rect fill="#F1F1F1" height="62.5938" rx="2.5" ry="2.5" style="stroke:#181818;stroke-width:0.5;" width="109.7441" x="132.77" y="823.41"/><rect fill="#F1F1F1" height="10" style="stroke:#181818;stroke-width:0.5;" width="15" x="222.5141" y="828.41"/><rect fill="#F1F1F1" height="2" style="stroke:#181818;stroke-width:0.5;" width="4" x="220.5141" y="830.41"/><rect fill="#F1F1F1" height="2" style="stroke:#181818;stroke-width:0.5;" width="4" x="220.5141" y="834.41"/><text fill="#000000" font-family="sans-serif" font-size="14" font-style="italic" lengthAdjust="spacing" textLength="67.7441" x="148.77" y="856.4051">&#171;system&#187;</text><text fill="#000000" font-family="sans-serif" font-size="14" lengthAdjust="spacing" textLength="60.3613" x="152.4614" y="872.702">Backend</text></g><!--entity LoadBalancer--><g class="entity" data-entity="LoadBalancer" data-source-line="45" data-uid="ent0025" id="entity_LoadBalancer"><rect fill="#F1F1F1" height="62.5938" rx="2.5" ry="2.5" style="stroke:#181818;stroke-width:0.5;" width="135.4229" x="132.93" y="469.81"/><rect fill="#F1F1F1" height="10" style="stroke:#181818;stroke-width:0.5;" width="15" x="248.3529" y="474.81"/><rect fill="#F1F1F1" height="2" style="stroke:#181818;stroke-width:0.5;" width="4" x="246.3529" y="476.81"/><rect fill="#F1F1F1" height="2" style="stroke:#181818;stroke-width:0.5;" width="4" x="246.3529" y="480.81"/><text fill="#000000" font-family="sans-serif" font-size="14" font-style="italic" lengthAdjust="spacing" textLength="67.7441" x="161.7694" y="502.8051">&#171;system&#187;</text><text fill="#000000" font-family="sans-serif" font-size="14" lengthAdjust="spacing" textLength="95.4229" x="147.93" y="519.102">LoadBalancer</text></g><!--entity Upload_API--><g class="entity" data-entity="Upload_API" data-source-line="46" data-uid="ent0026" id="entity_Upload_API"><ellipse cx="179.64" cy="733.41" fill="#F1F1F1" rx="8" ry="8" style="stroke:#181818;stroke-width:0.5;"/><text fill="#000000" font-family="sans-serif" font-size="14" lengthAdjust="spacing" textLength="78.2031" x="140.5384" y="763.4051">Upload_API</text></g><!--entity INoSQL--><g class="entity" data-entity="INoSQL" data-source-line="49" data-uid="ent0031" id="entity_INoSQL"><ellipse cx="101.64" cy="1033.85" fill="#F1F1F1" rx="8" ry="8" style="stroke:#181818;stroke-width:0.5;"/><text fill="#000000" font-family="sans-serif" font-size="14" lengthAdjust="spacing" textLength="50.873" x="76.2035" y="1063.8451">INoSQL</text></g><!--entity ISQL--><g class="entity" data-entity="ISQL" data-source-line="50" data-uid="ent0033" id="entity_ISQL"><ellipse cx="196.64" cy="1033.85" fill="#F1F1F1" rx="8" ry="8" style="stroke:#181818;stroke-width:0.5;"/><text fill="#000000" font-family="sans-serif" font-size="14" lengthAdjust="spacing" textLength="31.835" x="180.7225" y="1063.8451">ISQL</text></g><!--entity IS3--><g class="entity" data-entity="IS3" data-source-line="51" data-uid="ent0035" id="entity_IS3"><ellipse cx="289.64" cy="1033.85" fill="#F1F1F1" rx="8" ry="8" style="stroke:#181818;stroke-width:0.5;"/><text fill="#000000" font-family="sans-serif" font-size="14" lengthAdjust="spacing" textLength="21.9229" x="278.6786" y="1063.8451">IS3</text></g><!--entity NoSQL--><g class="entity" data-entity="NoSQL" data-source-line="34" data-uid="ent0021" id="entity_NoSQL"><path d="M68.27,1133.85 C68.27,1123.85 101.6421,1123.85 101.6421,1123.85 C101.6421,1123.85 135.0141,1123.85 135.0141,1133.85 L135.0141,1159.1469 C135.0141,1169.1469 101.6421,1169.1469 101.6421,1169.1469 C101.6421,1169.1469 68.27,1169.1469 68.27,1159.1469 L68.27,1133.85" fill="#F1F1F1" style="stroke:#181818;stroke-width:0.5;"/><path d="M68.27,1133.85 C68.27,1143.85 101.6421,1143.85 101.6421,1143.85 C101.6421,1143.85 135.0141,1143.85 135.0141,1133.85" fill="none" style="stroke:#181818;stroke-width:0.5;"/><text fill="#000000" font-family="sans-serif" font-size="14" lengthAdjust="spacing" textLength="46.7441" x="78.27" y="1160.8451">NoSQL</text></g><!--entity SQL--><g class="entity" data-entity="SQL" data-source-line="37" data-uid="ent0022" id="entity_SQL"><path d="M172.79,1133.85 C172.79,1123.85 196.643,1123.85 196.643,1123.85 C196.643,1123.85 220.4961,1123.85 220.4961,1133.85 L220.4961,1159.1469 C220.4961,1169.1469 196.643,1169.1469 196.643,1169.1469 C196.643,1169.1469 172.79,1169.1469 172.79,1159.1469 L172.79,1133.85" fill="#F1F1F1" style="stroke:#181818;stroke-width:0.5;"/><path d="M172.79,1133.85 C172.79,1143.85 196.643,1143.85 196.643,1143.85 C196.643,1143.85 220.4961,1143.85 220.4961,1133.85" fill="none" style="stroke:#181818;stroke-width:0.5;"/><text fill="#000000" font-family="sans-serif" font-size="14" lengthAdjust="spacing" textLength="27.7061" x="182.79" y="1160.8451">SQL</text></g><!--entity S3--><g class="entity" data-entity="S3" data-source-line="40" data-uid="ent0023" id="entity_S3"><path d="M270.74,1133.85 C270.74,1123.85 289.637,1123.85 289.637,1123.85 C289.637,1123.85 308.5339,1123.85 308.5339,1133.85 L308.5339,1159.1469 C308.5339,1169.1469 289.637,1169.1469 289.637,1169.1469 C289.637,1169.1469 270.74,1169.1469 270.74,1159.1469 L270.74,1133.85" fill="#F1F1F1" style="stroke:#181818;stroke-width:0.5;"/><path d="M270.74,1133.85 C270.74,1143.85 289.637,1143.85 289.637,1143.85 C289.637,1143.85 308.5339,1143.85 308.5339,1133.85" fill="none" style="stroke:#181818;stroke-width:0.5;"/><text fill="#000000" font-family="sans-serif" font-size="14" lengthAdjust="spacing" textLength="17.7939" x="280.74" y="1160.8451">S3</text></g><!--entity MQTT--><g class="entity" data-entity="MQTT" data-source-line="21" data-uid="ent0012" id="entity_MQTT"><ellipse cx="387.64" cy="221.52" fill="#F1F1F1" rx="8" ry="8" style="stroke:#181818;stroke-width:0.5;"/><text fill="#000000" font-family="sans-serif" font-size="14" lengthAdjust="spacing" textLength="40.2021" x="367.5389" y="251.5151">MQTT</text></g><!--entity HTTPS--><g class="entity" data-entity="HTTPS" data-source-line="22" data-uid="ent0013" id="entity_HTTPS"><ellipse cx="440.64" cy="221.52" fill="#F1F1F1" rx="8" ry="8" style="stroke:#181818;stroke-width:0.5;"/><text fill="#000000" font-family="sans-serif" font-size="14" lengthAdjust="spacing" textLength="44.96" x="418.16" y="251.5151">HTTPS</text></g><!--link InternetGateway to FWD--><g class="link" data-entity-1="InternetGateway" data-entity-2="FWD" data-source-line="28" data-uid="lnk17" id="link_InternetGateway_FWD"><path d="M258.2,253.24 C252.53,280.3 246.7075,308.0619 243.3375,324.1719" fill="none" id="InternetGateway-to-FWD" style="stroke:#000000;stroke-width:1;"/><path d="M250.1983,332.6787 A9,9 0 0 0 233.6422 329.2154" fill="none" style="stroke:#000000;stroke-width:1.5;"/></g><!--link InternetGateway to MQTT--><g class="link" data-entity-1="InternetGateway" data-entity-2="MQTT" data-source-line="29" data-uid="lnk18" id="link_InternetGateway_MQTT"><path d="M343.92,221.52 C355.42,221.52 366.92,221.52 378.42,221.52" fill="none" id="InternetGateway-MQTT" style="stroke:#000000;stroke-width:1;"/></g><!--link InternetGateway to HTTPS--><g class="link" data-entity-1="InternetGateway" data-entity-2="HTTPS" data-source-line="30" data-uid="lnk19" id="link_InternetGateway_HTTPS"><path d="M271.42,189.95 C285.99,130.36 325,9.53 397.14,36.22 C464.7,61.21 448.74,178.01 442.52,212.13" fill="none" id="InternetGateway-HTTPS" style="stroke:#000000;stroke-width:1;"/></g><!--link Upload_API to Backend--><g class="link" data-entity-1="Upload_API" data-entity-2="Backend" data-source-line="46" data-uid="lnk27" id="link_Upload_API_Backend"><path d="M180.16,742.24 C181.25,758.36 183.77,796.02 185.59,823.11" fill="none" id="Upload_API-Backend" style="stroke:#000000;stroke-width:1;"/></g><!--link FWD to LoadBalancer--><g class="link" data-entity-1="FWD" data-entity-2="LoadBalancer" data-source-line="47" data-uid="lnk29" id="link_FWD_LoadBalancer"><path d="M237.65,351.78 C232.31,373.18 217.44,432.78 208.26,469.59" fill="none" id="FWD-LoadBalancer" style="stroke:#000000;stroke-width:1;"/><text fill="#000000" font-family="sans-serif" font-size="13" lengthAdjust="spacing" textLength="4.1323" x="225.78" y="414.8769">&#160;</text></g><!--link LoadBalancer to Upload_API--><g class="link" data-entity-1="LoadBalancer" data-entity-2="Upload_API" data-source-line="48" data-uid="lnk30" id="link_LoadBalancer_Upload_API"><path d="M132.52,521.72 C99.85,534.93 63.74,556.01 44.64,588.41 C6,653.94 126.6853,710.2156 161.8653,725.0456" fill="none" id="LoadBalancer-to-Upload_API" style="stroke:#000000;stroke-width:1;"/><path d="M171.5287,719.9412 A9,9 0 0 0 164.9584 735.5274" fill="none" style="stroke:#000000;stroke-width:1.5;"/><text fill="#000000" font-family="sans-serif" font-size="13" lengthAdjust="spacing" textLength="141.9019" x="45.64" y="601.4769">distribute acc. to load</text></g><!--link Backend to INoSQL--><g class="link" data-entity-1="Backend" data-entity-2="INoSQL" data-source-line="49" data-uid="lnk32" id="link_Backend_INoSQL"><path d="M169.02,886.41 C157.28,906.39 142.21,933.22 130.64,957.85 C119.37,981.86 112.0743,1002.0841 107.4043,1015.7941" fill="none" id="Backend-to-INoSQL" style="stroke:#000000;stroke-width:1;"/><path d="M113.1781,1025.0731 A9,9 0 0 0 97.167 1019.6193" fill="none" style="stroke:#000000;stroke-width:1.5;"/><text fill="#000000" font-family="sans-serif" font-size="13" lengthAdjust="spacing" textLength="44.8906" x="131.64" y="970.9169">&#171;crud&#187;</text></g><!--link Backend to ISQL--><g class="link" data-entity-1="Backend" data-entity-2="ISQL" data-source-line="50" data-uid="lnk34" id="link_Backend_ISQL"><path d="M185.28,886.14 C183.86,910.26 182.81,944.78 185.64,974.85 C187.35,993.02 189.6573,1004.2383 192.3273,1015.3183" fill="none" id="Backend-to-ISQL" style="stroke:#000000;stroke-width:1;"/><path d="M202.1708,1020.0662 A9,9 0 0 0 185.727 1024.0287" fill="none" style="stroke:#000000;stroke-width:1.5;"/><text fill="#000000" font-family="sans-serif" font-size="13" lengthAdjust="spacing" textLength="44.8906" x="186.64" y="970.9169">&#171;crud&#187;</text></g><!--link Backend to IS3--><g class="link" data-entity-1="Backend" data-entity-2="IS3" data-source-line="51" data-uid="lnk36" id="link_Backend_IS3"><path d="M204.55,886.14 C214.93,906.01 227.71,932.82 235.64,957.85 C237.96,965.17 235.32,967.94 238.64,974.85 C248.86,996.12 261.5562,1009.0302 273.2362,1019.1002" fill="none" id="Backend-to-IS3" style="stroke:#000000;stroke-width:1;"/><path d="M284.001,1017.2147 A9,9 0 0 0 272.9563 1030.0253" fill="none" style="stroke:#000000;stroke-width:1.5;"/><text fill="#000000" font-family="sans-serif" font-size="13" lengthAdjust="spacing" textLength="44.8906" x="239.64" y="970.9169">&#171;crud&#187;</text></g><!--link INoSQL to NoSQL--><g class="link" data-entity-1="INoSQL" data-entity-2="NoSQL" data-source-line="52" data-uid="lnk37" id="link_INoSQL_NoSQL"><path d="M101.64,1042.81 C101.64,1059.56 101.64,1098.95 101.64,1123.79" fill="none" id="INoSQL-NoSQL" style="stroke:#000000;stroke-width:1;"/></g><!--link ISQL to SQL--><g class="link" data-entity-1="ISQL" data-entity-2="SQL" data-source-line="53" data-uid="lnk38" id="link_ISQL_SQL"><path d="M196.64,1042.81 C196.64,1059.56 196.64,1098.95 196.64,1123.79" fill="none" id="ISQL-SQL" style="stroke:#000000;stroke-width:1;"/></g><!--link IS3 to S3--><g class="link" data-entity-1="IS3" data-entity-2="S3" data-source-line="54" data-uid="lnk39" id="link_IS3_S3"><path d="M289.64,1042.81 C289.64,1059.56 289.64,1098.95 289.64,1123.79" fill="none" id="IS3-S3" style="stroke:#000000;stroke-width:1;"/></g><!--link InternetGateway to IS3--><g class="link" data-entity-1="InternetGateway" data-entity-2="IS3" data-source-line="55" data-uid="lnk40" id="link_InternetGateway_IS3"><path d="M290.93,253.19 C307.83,276.06 326.64,308.9 326.64,341.81 C326.64,341.81 326.64,341.81 326.64,855.7 C326.64,922.31 304.594,990.6586 295.864,1015.4286" fill="none" id="InternetGateway-to-IS3" style="stroke:#000000;stroke-width:1;"/><path d="M301.5395,1024.7681 A9,9 0 0 0 285.5869 1019.1457" fill="none" style="stroke:#000000;stroke-width:1.5;"/></g><!--link BackendGateway to MQTT--><g class="link" data-entity-1="BackendGateway" data-entity-2="MQTT" data-source-line="59" data-uid="lnk41" id="link_BackendGateway_MQTT"><path d="M598.98,189.82 C574.64,129.33 513.83,6 432.14,36.22 C364.5,61.24 378.0492,168.1727 384.0792,202.2827" fill="none" id="BackendGateway-to-MQTT" style="stroke:#000000;stroke-width:1;"/><path d="M393.6122,207.6266 A9,9 0 0 0 376.956 210.5711" fill="none" style="stroke:#000000;stroke-width:1.5;"/></g><!--link BackendGateway to HTTPS--><g class="link" data-entity-1="BackendGateway" data-entity-2="HTTPS" data-source-line="60" data-uid="lnk42" id="link_BackendGateway_HTTPS"><path d="M529.35,221.52 C502.88,221.52 486.41,221.52 459.94,221.52" fill="none" id="BackendGateway-to-HTTPS" style="stroke:#000000;stroke-width:1;"/><path d="M453.0182,229.9772 A9,9 0 0 0 453.0182 213.0628" fill="none" style="stroke:#000000;stroke-width:1.5;"/></g><!--link BackendGateway to IFPGAData--><g class="link" data-entity-1="BackendGateway" data-entity-2="IFPGAData" data-source-line="61" data-uid="lnk43" id="link_BackendGateway_IFPGAData"><path d="M616.05,253.24 C620.81,280.3 625.6839,308.0019 628.5239,324.1119" fill="none" id="BackendGateway-to-IFPGAData" style="stroke:#000000;stroke-width:1;"/><path d="M638.0544,329.4603 A9,9 0 0 0 621.3968 332.3968" fill="none" style="stroke:#000000;stroke-width:1.5;"/></g><!--reverse link IFPGAData to UserSpaceDMADriverProxy--><g class="link" data-entity-1="IFPGAData" data-entity-2="UserSpaceDMADriverProxy" data-source-line="62" data-uid="lnk45" id="link_IFPGAData_UserSpaceDMADriverProxy"><path d="M633.1289,361.7456 C634.9089,383.1456 639.04,432.78 642.1,469.59" fill="none" id="IFPGAData-backto-UserSpaceDMADriverProxy" style="stroke:#000000;stroke-width:1;"/><path d="M624.127,355.5486 A9,9 0 0 0 640.9833 354.1466" fill="none" style="stroke:#000000;stroke-width:1.5;"/></g><!--link UserSpaceDMADriverProxy to FPGAData--><g class="link" data-entity-1="UserSpaceDMADriverProxy" data-entity-2="FPGAData" data-source-line="63" data-uid="lnk46" id="link_UserSpaceDMADriverProxy_FPGAData"><path d="M644.64,532.69 C644.64,586.28 644.64,684.34 644.64,714.46" fill="none" id="UserSpaceDMADriverProxy-to-FPGAData" style="stroke:#000000;stroke-width:1;"/><path d="M653.0972,721.3818 A9,9 0 0 0 636.1828 721.3818" fill="none" style="stroke:#000000;stroke-width:1.5;"/></g><!--link FPGAData to KernelDMADriver--><g class="link" data-entity-1="FPGAData" data-entity-2="KernelDMADriver" data-source-line="64" data-uid="lnk48" id="link_FPGAData_KernelDMADriver"><path d="M644.64,742.24 C644.64,760.07 644.64,804.26 644.64,831.34" fill="none" id="FPGAData-KernelDMADriver" style="stroke:#000000;stroke-width:1;"/></g><!--SRC=[ZPH1Ru8m5CVlV8gc9tTW5suB8K69ZgWB1jmEYp45keM8r9GoDOlVVIs52WBE7ZI-_-_rlVxxQhvBiWEYQ0ziIibnGb92GPYYQAVbIdBm5ofI5k0JQm9QHc8Cu3IX-oEY6FvgWAy3bz0tZyynpN3gyzyO0gc9LIRD_JfhkqYoujJGnVgKkSxITcZoW-ccfOwUmDIRsGvYICKlclnijx3ECUrlOAqQk2sjSbHrZvBJUGDCCo_2_9mplBUiTiwO5yHPF4CC7z5TbFVk3ZRFs-VwSXK4ulir23o_DdcIaYAkJ_7fPamOn9e5wsfQRT67Cm3hiJww9rDTzZ0iLwsrl7xt9g8_TQYOdp14EGPln5yjcigbo_nFGD-0_KZjVjU5KbqG58zHYhA8pr4JgOdr8UN8rlPSuOpQRMW7lT25UU05G3Z828SR-t8sJd96ax1W6A0eUWQC0273dcEKsQwqZMUQPaIBsBA6qST1ev-hYd58tjPLgCFje25ZnhLG_v2v5LAETkULy4aQoKdhb-IKTRLoP_M8XXyilwa7mV91AExspqTUUIN_0G00]--></g></svg>